<?xml version="1.0" encoding="UTF-8" standalone="no"?>
<svg width="146px" height="18px" viewBox="0 0 146 18" version="1.1" xmlns="http://www.w3.org/2000/svg" xmlns:xlink="http://www.w3.org/1999/xlink">
    <!-- Generator: Sketch 39.1 (31720) - http://www.bohemiancoding.com/sketch -->
    <title>powered_by</title>
    <desc>Created with Sketch.</desc>
    <defs></defs>
    <g id="Page-1" stroke="none" stroke-width="1" fill="none" fill-rule="evenodd">
        <g id="powered_by" fill="#7F8DA0">
            <g id="logo" transform="translate(-0.700000, 0.200000)">
                <path d="M145.050606,2.85032406 L144.884927,2.85032406 C144.873368,2.85032406 144.866946,2.85409359 144.866946,2.86665869 L144.866946,2.91943213 L144.774474,2.91943213 L144.774474,2.83901546 C144.774474,2.78121598 144.793739,2.75985531 144.857956,2.75985531 L145.349856,2.75985531 C145.412788,2.75985531 145.432053,2.78121598 145.432053,2.83901546 L145.432053,2.91943213 L145.340865,2.91943213 L145.340865,2.86665869 C145.340865,2.85409359 145.334444,2.85032406 145.324169,2.85032406 L145.153353,2.85032406 L145.153353,3.52255712 L145.050606,3.52255712 L145.050606,2.85032406 L145.050606,2.85032406 Z M145.442327,3.43334488 L145.488563,3.43334488 C145.500122,3.43334488 145.506544,3.42957535 145.507828,3.41701025 L145.559202,2.75985531 L145.652958,2.75985531 L145.857167,3.19586442 C145.872579,3.2297902 145.881569,3.26874202 145.881569,3.26874202 L145.886707,3.26874202 C145.886707,3.26874202 145.894413,3.2297902 145.909825,3.19586442 L146.114034,2.75985531 L146.20779,2.75985531 L146.259163,3.41701025 C146.260448,3.42957535 146.266869,3.43334488 146.278428,3.43334488 L146.32338,3.43334488 L146.32338,3.52255712 L146.24632,3.52255712 C146.180819,3.52255712 146.166691,3.50496598 146.16027,3.44214046 L146.125593,3.00361833 C146.123024,2.97974463 146.125593,2.95461442 146.125593,2.95461442 L146.123024,2.95461442 L145.923952,3.37805843 L145.843039,3.37805843 L145.642683,2.95461442 L145.640115,2.95461442 C145.640115,2.95461442 145.642683,2.97974463 145.641399,3.00361833 L145.605438,3.44214046 C145.6003,3.50496598 145.584888,3.52255712 145.519387,3.52255712 L145.442327,3.52255712 L145.442327,3.43334488 L145.442327,3.43334488 Z" id="Fill-1"></path>
                <path d="M142.419008,7.58862481 L142.724679,7.58862481 L142.724679,7.51197767 C142.724679,6.14740737 142.171131,5.6448032 140.930466,5.6448032 C140.491224,5.6448032 139.633289,5.75788914 139.633289,6.27934096 L139.633289,6.78320163 L137.380569,6.78320163 L137.380569,5.77548029 C137.380569,4.00128759 139.937676,3.81532405 140.948446,3.81532405 C144.19524,3.81532405 145.1495,5.47768732 145.1495,7.60621595 L145.1495,11.1533448 C145.1495,11.4159555 145.301051,11.5642237 145.568192,11.5642237 L146.33237,11.5642237 L146.33237,13.5633318 L144.155426,13.5633318 C143.258961,13.5633318 142.916045,13.0770623 142.916045,12.5166586 C142.916045,12.2728956 142.934025,12.1057797 142.934025,12.1057797 L142.898064,12.1057797 C142.898064,12.1057797 142.153151,13.7869906 139.956941,13.7869906 C138.220523,13.7869906 136.636941,12.7202133 136.636941,10.8166 C136.636941,7.83113131 140.834141,7.58862481 142.419008,7.58862481 L142.419008,7.58862481 Z M140.549019,11.9374073 C141.846195,11.9374073 142.763209,10.5941977 142.763209,9.43569511 L142.763209,9.21077974 L142.343232,9.21077974 C141.083301,9.21077974 139.078458,9.38040865 139.078458,10.7047706 C139.078458,11.3405649 139.557514,11.9374073 140.549019,11.9374073 L140.549019,11.9374073 Z" id="Fill-2"></path>
                <path d="M126.525387,6.46656101 C126.525387,6.1876157 126.373836,6.0544256 126.106695,6.0544256 L125.342516,6.0544256 L125.342516,4.0389829 L127.498912,4.0389829 C128.39666,4.0389829 128.720312,4.43227066 128.720312,4.95497899 L128.720312,5.32816258 L128.758842,5.32816258 C128.758842,5.32816258 129.578247,3.81532405 131.850232,3.81532405 C134.485683,3.81532405 136.184855,5.85087091 136.184855,8.79990084 C136.184855,11.8243214 134.275052,13.7869906 131.717945,13.7869906 C129.790162,13.7869906 128.932227,12.5355063 128.932227,12.5355063 L128.893697,12.5355063 C128.893697,12.5355063 128.932227,12.8709946 128.932227,13.3572641 L128.932227,17.2964242 L126.525387,17.2964242 L126.525387,6.46656101 L126.525387,6.46656101 Z M131.278703,11.7866261 C132.615694,11.7866261 133.74077,10.7248748 133.74077,8.83885266 C133.74077,7.02445163 132.74798,5.85087091 131.315949,5.85087091 C130.057303,5.85087091 128.874432,6.74801934 128.874432,8.8551873 C128.874432,10.3303305 129.675856,11.7866261 131.278703,11.7866261 L131.278703,11.7866261 Z" id="Fill-3"></path>
                <path d="M115.675342,6.47410007 C115.675342,6.19515476 115.523791,6.06447768 115.255365,6.06447768 L114.491187,6.06447768 L114.491187,4.04777847 L116.648867,4.04777847 C117.545331,4.04777847 117.870267,4.44106623 117.870267,4.96126154 L117.870267,5.33570164 L117.907513,5.33570164 C117.907513,5.33570164 118.728202,3.82286311 121.000187,3.82286311 C123.634354,3.82286311 125.332242,5.85966648 125.332242,8.80869641 C125.332242,11.8343735 123.423723,13.7932732 120.8679,13.7932732 C118.938832,13.7932732 118.079614,12.5443019 118.079614,12.5443019 L118.042368,12.5443019 C118.042368,12.5443019 118.079614,12.8810466 118.079614,13.3635466 L118.079614,17.3039633 L115.675342,17.3039633 L115.675342,6.47410007 L115.675342,6.47410007 Z M120.427374,11.7966782 C121.76308,11.7966782 122.88944,10.7336704 122.88944,8.84513521 C122.88944,7.03576023 121.896651,5.85966648 120.467189,5.85966648 C119.205974,5.85966648 118.023103,6.7555584 118.023103,8.86523938 C118.023103,10.3391261 118.823242,11.7966782 120.427374,11.7966782 L120.427374,11.7966782 Z" id="Fill-4"></path>
                <path d="M110.891202,6.47410007 C110.891202,6.19515476 110.738366,6.06447768 110.471225,6.06447768 L109.707047,6.06447768 L109.707047,4.04777847 L112.016278,4.04777847 C112.914026,4.04777847 113.296758,4.44106623 113.296758,5.31559748 L113.296758,11.1621404 C113.296758,11.4247511 113.448309,11.5717628 113.714166,11.5717628 L114.478344,11.5717628 L114.478344,13.5696143 L112.169113,13.5696143 C111.272649,13.5696143 110.891202,13.1976873 110.891202,12.3017953 L110.891202,6.47410007 L110.891202,6.47410007 Z M111.005508,0.314686051 L113.104108,0.314686051 L113.104108,2.49975765 L111.005508,2.49975765 L111.005508,0.314686051 Z" id="Fill-5"></path>
                <path d="M106.107062,2.73975114 C106.107062,2.46080583 105.952942,2.32887224 105.6858,2.32887224 L104.922907,2.32887224 L104.922907,0.314686051 L107.233422,0.314686051 C108.13117,0.314686051 108.531882,0.704204278 108.531882,1.58250505 L108.531882,11.1621404 C108.531882,11.4247511 108.683433,11.5717628 108.950575,11.5717628 L109.695488,11.5717628 L109.695488,13.5696143 L107.405522,13.5696143 C106.488508,13.5696143 106.107062,13.1976873 106.107062,12.3017953 L106.107062,2.73975114" id="Fill-6"></path>
                <path d="M96.1714617,2.38415869 L94.930796,2.38415869 L94.930796,0.314686051 L102.659912,0.314686051 C103.576926,0.314686051 103.958372,0.704204278 103.958372,1.58250505 L103.958372,3.59794775 L101.705652,3.59794775 L101.705652,2.79629411 C101.705652,2.53619645 101.552817,2.38415869 101.28696,2.38415869 L98.672058,2.38415869 L98.672058,6.13861179 L103.004113,6.13861179 L103.004113,8.21185397 L98.672058,8.21185397 L98.672058,13.5696143 L96.1714617,13.5696143 L96.1714617,2.38415869" id="Fill-7"></path>
                <path d="M82.6551415,0.314686051 L79.1399221,0.314686051 L76.3426449,3.0488527 C74.8374067,4.5214829 74.8374067,6.91513523 76.3426449,8.38776543 L79.1617558,11.1445493 C80.6657097,12.618436 83.1175014,12.6159229 84.6227396,11.1420362 L87.6601871,8.17038912 L85.8993666,6.44645684 L82.8632034,9.42061698 C82.2942439,9.97725109 81.4863985,9.97348156 80.921292,9.42061698 L78.1034654,6.66383314 C77.5409276,6.11348159 77.5332216,5.32439305 78.1008968,4.76901545 L82.6551415,0.314686051 Z M91.4464007,10.8329347 C92.9503546,9.36156099 92.9516389,6.96665215 91.447685,5.49653498 L88.6298585,2.73975114 C87.1233359,1.26712094 84.6741129,1.26963396 83.1688747,2.74226416 L80.1314272,5.71265477 L81.893532,7.43658705 L84.9284108,4.46242691 C85.4986547,3.90830582 86.3052158,3.91207535 86.869038,4.46242691 L89.6868645,7.21795423 C90.2494023,7.76830579 90.2571083,8.55865084 89.6881488,9.11402844 L85.1351885,13.5696143 L88.6491235,13.5696143 L91.4464007,10.8329347 Z" id="Fill-9"></path>
                <path d="M2.54964706,3.36282353 L5.16705882,3.36282353 C5.57364909,3.36282353 5.94846887,3.40305842 6.29152941,3.48352941 C6.63458995,3.5640004 6.9331752,3.69105796 7.18729412,3.86470588 C7.44141304,4.03835381 7.64046987,4.26493978 7.78447059,4.54447059 C7.92847131,4.8240014 8.00047059,5.16282154 8.00047059,5.56094118 C8.00047059,6.13694406 7.89882455,6.62823326 7.69552941,7.03482353 C7.49223428,7.4414138 7.21694291,7.77388106 6.86964706,8.03223529 C6.5223512,8.29058953 6.11788466,8.47905823 5.65623529,8.59764706 C5.19458593,8.71623589 4.7011791,8.77552941 4.176,8.77552941 L3.19764706,8.77552941 L2.63858824,11.6470588 L0.885176471,11.6470588 L2.54964706,3.36282353 Z M4.36658824,7.39058824 C4.98494427,7.39058824 5.45929247,7.25929543 5.78964706,6.99670588 C6.12000165,6.73411633 6.28517647,6.34023792 6.28517647,5.81505882 C6.28517647,5.44235108 6.1644718,5.17129496 5.92305882,5.00188235 C5.68164585,4.83246974 5.33647283,4.74776471 4.88752941,4.74776471 L3.99811765,4.74776471 L3.48988235,7.39058824 L4.36658824,7.39058824 Z M11.5623529,11.7995294 C11.0879976,11.7995294 10.6602372,11.7211773 10.2790588,11.5644706 C9.89788044,11.4077639 9.57176606,11.1790603 9.30070588,10.8783529 C9.0296457,10.5776456 8.82000074,10.2091787 8.6717647,9.77294118 C8.52352867,9.3367037 8.44941176,8.84329687 8.44941176,8.29270588 C8.44941176,7.56423165 8.56376356,6.888709 8.79247059,6.26611765 C9.02117761,5.6435263 9.32823336,5.10564932 9.71364706,4.65247059 C10.0990607,4.19929185 10.5458798,3.84564833 11.0541176,3.59152941 C11.5623555,3.33741049 12.0959972,3.21035294 12.6550588,3.21035294 C13.1294141,3.21035294 13.5571746,3.29082272 13.9383529,3.45176471 C14.3195313,3.61270669 14.6456457,3.84352791 14.9167059,4.14423529 C15.1877661,4.44494268 15.397411,4.81129196 15.5456471,5.24329412 C15.6938831,5.67529628 15.768,6.16658548 15.768,6.71717647 C15.768,7.4456507 15.6536482,8.12117336 15.4249412,8.74376471 C15.1962341,9.36635605 14.8891784,9.90423303 14.5037647,10.3574118 C14.118351,10.8105905 13.6715319,11.164234 13.1632941,11.4183529 C12.6550563,11.6724719 12.1214146,11.7995294 11.5623529,11.7995294 L11.5623529,11.7995294 Z M12.5788235,4.72235294 C12.2823515,4.72235294 11.9943543,4.81341085 11.7148235,4.99552941 C11.4352927,5.17764797 11.1854129,5.42329257 10.9651765,5.73247059 C10.7449401,6.0416486 10.5670595,6.40588026 10.4315294,6.82517647 C10.2959993,7.24447268 10.2282353,7.695527 10.2282353,8.17835294 C10.2282353,8.83906213 10.3510576,9.35788047 10.5967059,9.73482353 C10.8423542,10.1117666 11.1938801,10.3002353 11.6512941,10.3002353 C11.9477662,10.3002353 12.2357633,10.2091774 12.5152941,10.0270588 C12.7948249,9.84494027 13.0447048,9.59717804 13.2649412,9.28376471 C13.4851776,8.97035137 13.6609405,8.6040021 13.7922353,8.18470588 C13.9235301,7.76540967 13.9891765,7.31435536 13.9891765,6.83152941 C13.9891765,6.17082023 13.8684718,5.65411951 13.6270588,5.28141176 C13.3856458,4.90870402 13.0362376,4.72235294 12.5788235,4.72235294 L12.5788235,4.72235294 Z M17.1698823,3.36282353 L18.9487059,3.36282353 L18.6818823,7.33976471 C18.6395292,7.7802375 18.5992943,8.22282131 18.5611765,8.66752941 C18.5230586,9.11223752 18.4785885,9.55482133 18.4277647,9.99529412 L18.4785882,9.99529412 C18.6480008,9.55482133 18.827999,9.11011989 19.0185882,8.66117647 C19.2091774,8.21223305 19.3891756,7.77176687 19.5585882,7.33976471 L21.2611765,3.36282353 L22.7350588,3.36282353 L22.7604706,7.33976471 C22.752,7.77176687 22.7392942,8.21011542 22.7223529,8.65482353 C22.7054117,9.09953164 22.6884707,9.5463507 22.6715294,9.99529412 L22.7223529,9.99529412 C22.8748243,9.5463507 23.0315286,9.09953164 23.1924706,8.65482353 C23.3534126,8.21011542 23.5058816,7.77176687 23.6498823,7.33976471 L25.0475294,3.36282353 L26.712,3.36282353 L23.4974118,11.6470588 L21.2992941,11.6470588 L21.3501176,7.68282353 C21.3501176,7.41176335 21.3607058,7.10258997 21.3818823,6.75529412 C21.4030589,6.40799826 21.4305881,6.07341337 21.4644706,5.75152941 L21.4136471,5.75152941 C21.2950582,6.06494274 21.1701183,6.38470425 21.0388235,6.71082353 C20.9075287,7.03694281 20.7825888,7.36093957 20.664,7.68282353 L19.0376471,11.6470588 L16.8776471,11.6470588 L17.1698823,3.36282353 Z M27.7962353,3.36282353 L32.7007059,3.36282353 L32.4211765,4.824 L29.232,4.824 L28.8762353,6.62823529 L31.5825882,6.62823529 L31.3030588,8.08941176 L28.5967059,8.08941176 L28.1647059,10.1858824 L31.4555294,10.1858824 L31.176,11.6470588 L26.1317647,11.6470588 L27.7962353,3.36282353 Z M36.1228235,7.22541176 C36.7411795,7.22541176 37.2070572,7.09200133 37.5204706,6.82517647 C37.8338839,6.55835161 37.9905882,6.19623758 37.9905882,5.73882353 C37.9905882,5.38305704 37.8720012,5.12894194 37.6348235,4.97647059 C37.3976459,4.82399924 37.0545905,4.74776471 36.605647,4.74776471 L35.7289412,4.74776471 L35.2461176,7.22541176 L36.1228235,7.22541176 Z M36.8724706,3.36282353 C37.2790608,3.36282353 37.6559983,3.4009408 38.0032941,3.47717647 C38.35059,3.55341215 38.6491752,3.67623445 38.8990588,3.84564706 C39.1489424,4.01505967 39.3458816,4.23529276 39.4898823,4.50635294 C39.6338831,4.77741312 39.7058823,5.10352751 39.7058823,5.48470588 C39.7058823,5.87435489 39.6529417,6.22376316 39.5470588,6.53294118 C39.4411759,6.84211919 39.2950597,7.11529293 39.1087059,7.35247059 C38.922352,7.58964824 38.7000013,7.79294033 38.441647,7.96235294 C38.1832928,8.13176555 37.9016486,8.26729361 37.5967059,8.36894118 L38.88,11.6470588 L37.0503529,11.6470588 L35.9830588,8.61035294 L34.9665882,8.61035294 L34.3694118,11.6470588 L32.616,11.6470588 L34.2804706,3.36282353 L36.8724706,3.36282353 Z M41.6414117,3.36282353 L46.5458823,3.36282353 L46.2663529,4.824 L43.0771765,4.824 L42.7214117,6.62823529 L45.4277647,6.62823529 L45.1482353,8.08941176 L42.4418823,8.08941176 L42.0098823,10.1858824 L45.3007059,10.1858824 L45.0211765,11.6470588 L39.9769412,11.6470588 L41.6414117,3.36282353 Z M48.125647,3.36282353 L49.9425882,3.36282353 C51.1030646,3.36282353 52.0030556,3.62964439 52.6425882,4.16329412 C53.2821208,4.69694384 53.6018823,5.51434744 53.6018823,6.61552941 C53.6018823,7.42870995 53.4896482,8.14870275 53.2651765,8.77552941 C53.0407047,9.40235608 52.7272961,9.92964492 52.3249412,10.3574118 C51.9225862,10.7851786 51.4418851,11.1070577 50.8828235,11.3230588 C50.3237619,11.5390599 49.7138856,11.6470588 49.0531765,11.6470588 L46.4611765,11.6470588 L48.125647,3.36282353 Z M49.0150588,10.2494118 C49.4131784,10.2494118 49.783763,10.1795301 50.1268235,10.0397647 C50.469884,9.8999993 50.7663517,9.68611909 51.0162353,9.39811765 C51.2661189,9.11011621 51.4630581,8.74376693 51.6070588,8.29905882 C51.7510595,7.85435072 51.8230588,7.33129712 51.8230588,6.72988235 C51.8230588,6.04376128 51.6494135,5.54400157 51.3021176,5.23058824 C50.9548218,4.9171749 50.4889441,4.76047059 49.9044706,4.76047059 L49.5741176,4.76047059 L48.4941176,10.2494118 L49.0150588,10.2494118 Z M58.0447059,3.36282353 L60.5731764,3.36282353 C60.9882373,3.36282353 61.3651748,3.4009408 61.704,3.47717647 C62.0428252,3.55341215 62.3350576,3.66776394 62.5807059,3.82023529 C62.8263541,3.97270664 63.0169405,4.16752823 63.1524706,4.40470588 C63.2880007,4.64188354 63.3557647,4.92564541 63.3557647,5.256 C63.3557647,5.73882594 63.1927075,6.16446875 62.8665882,6.53294118 C62.5404689,6.90141361 62.1063556,7.16611684 61.5642353,7.32705882 L61.5388235,7.37788235 C61.9962376,7.48800055 62.3498811,7.672234 62.5997647,7.93058824 C62.8496483,8.18894247 62.9745882,8.52140973 62.9745882,8.928 C62.9745882,9.41082594 62.879295,9.82588062 62.6887059,10.1731765 C62.4981167,10.5204723 62.2397663,10.8021166 61.913647,11.0181176 C61.5875278,11.2341187 61.2063551,11.3929407 60.7701176,11.4945882 C60.3338801,11.5962358 59.8743553,11.6470588 59.3915294,11.6470588 L56.3802353,11.6470588 L58.0447059,3.36282353 Z M59.9378823,6.75529412 C60.5223558,6.75529412 60.9416458,6.64517757 61.1957647,6.42494118 C61.4498836,6.20470478 61.5769412,5.91247241 61.5769412,5.54823529 C61.5769412,5.27717512 61.4710599,5.06753015 61.2592941,4.91929412 C61.0475283,4.77105808 60.7129434,4.69694118 60.2555294,4.69694118 L59.5185882,4.69694118 L59.112,6.75529412 L59.9378823,6.75529412 Z M59.4677647,10.3129412 C60.0607088,10.3129412 60.5138808,10.200707 60.8272941,9.97623529 C61.1407074,9.75176358 61.2974117,9.42353157 61.2974117,8.99152941 C61.2974117,8.65270419 61.1872952,8.3922362 60.9670588,8.21011765 C60.7468224,8.02799909 60.4080023,7.93694118 59.9505882,7.93694118 L58.8705882,7.93694118 L58.3877647,10.3129412 L59.4677647,10.3129412 Z M65.8249411,8.64847059 L64.5035294,3.36282353 L66.3077647,3.36282353 L66.6635294,5.35764706 C66.7228238,5.67106039 66.7757644,5.97176327 66.8223529,6.25976471 C66.8689414,6.54776615 66.921882,6.85270427 66.9811764,7.17458824 L67.032,7.17458824 C67.2014126,6.85270427 67.3665874,6.54564852 67.5275294,6.25341176 C67.6884714,5.96117501 67.8621167,5.65411926 68.0484706,5.33223529 L69.2047059,3.36282353 L71.0724706,3.36282353 L67.565647,8.64847059 L66.9684706,11.6470588 L65.2404706,11.6470588 L65.8249411,8.64847059 Z" id="POWERED-BY"></path>
            </g>
        </g>
    </g>
</svg>